<svg xmlns="http://www.w3.org/2000/svg" version="1.1" xmlns:xlink="http://www.w3.org/1999/xlink" xmlns:svgjs="http://svgjs.com/svgjs" width="1440" height="560" preserveAspectRatio="none" viewBox="0 0 1440 560"><g mask="url(&quot;#SvgjsMask1057&quot;)" fill="none"><rect width="1440" height="560" x="0" y="0" fill="rgba(0, 108, 219, 1)"></rect><path d="M0,303.207C59.457,290.875,120.501,298.455,176.064,273.961C238.708,246.346,298.258,210.148,337.83,154.282C382.289,91.517,430.998,15.306,412.09,-59.25C393.138,-133.98,301.564,-159.931,244.889,-212.197C195.893,-257.382,163.552,-321.349,101.501,-345.681C36.95,-370.994,-36.23,-369.43,-102.28,-348.335C-167.48,-327.512,-225.422,-285.322,-264.162,-228.897C-300.754,-175.6,-309.421,-109.316,-310.76,-44.681C-311.981,14.224,-283.023,66.203,-271.474,123.978C-255.611,203.332,-297.753,313.643,-230.22,358.229C-163.014,402.599,-78.854,319.562,0,303.207" fill="#0062c7"></path><path d="M1440 1013.3009999999999C1523.362 1015.05 1573.106 920.9839999999999 1646.152 880.778 1726.565 836.517 1837.932 841.078 1890.1019999999999 765.5550000000001 1943.271 688.587 1944.064 580.606 1914.909 491.718 1887.386 407.80600000000004 1800.216 364.453 1737.989 301.791 1680.71 244.11200000000002 1640.179 166.163 1563.85 138.20499999999998 1485.604 109.54500000000002 1395.093 114.10300000000001 1319.135 148.37099999999998 1247.176 180.83499999999998 1217.829 263.261 1162.292 319.365 1101.517 380.76 997.884 409.553 977.491 493.501 957.1220000000001 577.353 1012.818 661.698 1061.8899999999999 732.677 1105.569 795.855 1177.659 826.466 1239.335 872.241 1306.347 921.976 1356.566 1011.55 1440 1013.3009999999999" fill="#0076ef"></path></g><defs><mask id="SvgjsMask1057"><rect width="1440" height="560" fill="#ffffff"></rect></mask></defs></svg>